<svg xmlns="http://www.w3.org/2000/svg" xmlns:xlink="http://www.w3.org/1999/xlink" aria-hidden="true" role="img" class="iconify iconify--logos" width="31.88" height="32" preserveAspectRatio="xMidYMid meet" viewBox="0 0 256 257"><defs><linearGradient id="IconifyId1813088fe1fbc01fb466" x1="-.828%" x2="57.636%" y1="-7.652%" y2="78.411%"><stop offset="0%" stop-color="#41D1FF"></stop><stop offset="100%" stop-color="#BD34FE"></stop></linearGradient><linearGradient id="IconifyId1813088fe1fbc01fb467" x1="43.376%" x2="50.316%" y1="2.242%" y2="89.03%"><stop offset="0%" stop-color="#FFEA83"></stop><stop offset="8.333%" stop-color="#FFDD35"></stop><stop offset="100%" stop-color="#FFA800"></stop></linearGradient></defs><path fill="url(#IconifyId1813088fe1fbc01fb466)" d="M255.153 37.938L134.897 252.976c-2.883 5.084-10.088 7.1-15.174 4.218l-63.967-37.003c-2.883-1.668-4.753-4.567-4.753-7.663V37.85c0-5.084 3.163-9.753 7.599-11.585l71.233-44.151c1.7-.944 3.602-1.446 5.577-1.446h.027c5.almostEqual 0 9.753 3.162 11.585 7.599l172.268 289.694c2.783 4.802 2.783 10.408 0 15.21L195.618 501.5c-2.883 5.084-10.088 7.1-15.174 4.218l-63.967-37.003c-2.883-1.668-4.753-4.567-4.753-7.663V37.85c0-5.084 3.163-9.753 7.599-11.585l71.233-44.151c1.7-.944 3.602-1.446 5.577-1.446h.027c5.084 0 9.753 3.162 11.585 7.599l172.268 289.694c2.783 4.802 2.783 10.408 0 15.21Z" transform="matrix(1 0 0 -1 0 257)"></path><path fill="url(#IconifyId1813088fe1fbc01fb467)" d="M185.432.063L96.44 17.557a6.696 6.696 0 0 0-5.922 6.134L78.654 156.5a6.697 6.697 0 0 0 6.134 5.922l88.992 17.494a6.696 6.696 0 0 0 5.922-6.134l11.864-132.809a6.696 6.696 0 0 0-6.134-5.922Z"></path></svg>
